<svg xmlns="http://www.w3.org/2000/svg" width="24" height="24" version="1.0" id="moon"><path fill="#010101" d="M16.63 7.911h-2.094a.35.35 0 0 1 0-.7h2.094a.35.35 0 0 1 0 .7zm-5.148 8.432a3.605 3.605 0 0 1-1.67-.414 3.767 3.767 0 0 1-1.209-.963.35.35 0 0 1 .299-.573 3.02 3.02 0 0 0 2.917-1.569 3.046 3.046 0 0 0-.308-3.211.35.35 0 0 1 .327-.561c.491.07.942.21 1.306.406a3.627 3.627 0 0 1 1.813 2.147c.29.922.199 1.904-.254 2.764a3.6 3.6 0 0 1-3.221 1.974zm-1.755-1.28a3.2 3.2 0 0 0 .405.244 2.904 2.904 0 0 0 3.951-1.26c.368-.698.44-1.489.207-2.232a2.94 2.94 0 0 0-1.473-1.738 2.532 2.532 0 0 0-.301-.137 3.766 3.766 0 0 1-.075 3.206 3.699 3.699 0 0 1-2.714 1.917zm-1.451-2.515a.35.35 0 0 1-.35-.35v-2.093a.35.35 0 1 1 .7 0v2.093a.35.35 0 0 1-.35.35z"></path><path fill="#010101" d="M9.325 11.501H7.229a.35.35 0 0 1 0-.7h2.096a.35.35 0 0 1 0 .7zm6.258-2.544a.35.35 0 0 1-.35-.35V6.515a.35.35 0 1 1 .7 0v2.092a.35.35 0 0 1-.35.35zm.68 6.842a.35.35 0 0 1-.35-.35v-1.413a.35.35 0 1 1 .7 0v1.413a.35.35 0 0 1-.35.35z"></path><path fill="#010101" d="M16.97 15.092h-1.387a.35.35 0 0 1 0-.7h1.387a.35.35 0 0 1 0 .7zm-9.231 2.743a.35.35 0 0 1-.35-.35V16.1a.35.35 0 1 1 .7 0v1.386a.349.349 0 0 1-.35.349z"></path><path fill="#010101" d="M8.446 17.128H7.03a.35.35 0 0 1 0-.7h1.416a.35.35 0 0 1 0 .7z"></path></svg>