<svg xmlns="http://www.w3.org/2000/svg" width="24" height="24" version="1.0" id="weather"><path fill="#010101" d="M9.961 17.249a5.215 5.215 0 0 1-2.413-.59 5.316 5.316 0 0 1-1.727-1.424c-.087-.109-.1-.26-.033-.383s.19-.192.339-.183c1.877.167 3.642-.779 4.47-2.411.843-1.578.656-3.514-.472-4.939-.087-.109-.1-.261-.033-.384s.213-.199.339-.182c.662.061 1.336.27 1.949.606 1.373.686 2.369 1.968 2.722 3.51a.349.349 0 0 1-.263.419c-.189.053-.376-.075-.419-.263-.307-1.338-1.168-2.448-2.364-3.046a4.59 4.59 0 0 0-.902-.377 5.201 5.201 0 0 1 .064 4.979c-.83 1.634-2.466 2.675-4.306 2.795.288.257.608.479.96.661a4.562 4.562 0 0 0 5.232-.737.35.35 0 1 1 .48.51 5.28 5.28 0 0 1-3.623 1.439z"></path><path fill="#010101" d="M16.687 15.849h-4.418c-.908-.074-1.596-.799-1.596-1.65 0-.867.736-1.604 1.627-1.646a2.222 2.222 0 0 1 2.207-1.982c1.197 0 2.18.929 2.243 2.096.84.061 1.504.75 1.504 1.59 0 .858-.682 1.559-1.554 1.594-.004-.002-.009-.002-.013-.002zm-4.305-2.6c-.547 0-1.01.435-1.01.949 0 .482.415.909.926.952l4.381-.001a.905.905 0 0 0 .876-.895c0-.493-.415-.895-.925-.895-.06 0-.111 0-.141.011a.35.35 0 0 1-.446-.44c.011-.033.011-.085.011-.145 0-.837-.694-1.518-1.547-1.518a1.54 1.54 0 0 0-1.52 1.518v.141a.349.349 0 0 1-.456.334c-.034-.011-.085-.011-.149-.011z"></path></svg>